<?xml version="1.0" encoding="UTF-8" standalone="no"?>
<!-- Created with Inkscape (http://www.inkscape.org/) -->

<svg
   width="64.795174mm"
   height="35.961533mm"
   viewBox="0 0 64.795174 35.961533"
   version="1.1"
   id="svg1"
   xml:space="preserve"
   inkscape:version="1.3.2 (091e20e, 2023-11-25, custom)"
   sodipodi:docname="ref.svg"
   xmlns:inkscape="http://www.inkscape.org/namespaces/inkscape"
   xmlns:sodipodi="http://sodipodi.sourceforge.net/DTD/sodipodi-0.dtd"
   xmlns:xlink="http://www.w3.org/1999/xlink"
   xmlns="http://www.w3.org/2000/svg"
   xmlns:svg="http://www.w3.org/2000/svg"><sodipodi:namedview
     id="namedview1"
     pagecolor="#ffffff"
     bordercolor="#111111"
     borderopacity="1"
     inkscape:showpageshadow="0"
     inkscape:pageopacity="0"
     inkscape:pagecheckerboard="1"
     inkscape:deskcolor="#d1d1d1"
     inkscape:document-units="mm"
     inkscape:zoom="2"
     inkscape:cx="-1468.25"
     inkscape:cy="-1640.75"
     inkscape:window-width="2560"
     inkscape:window-height="1494"
     inkscape:window-x="-11"
     inkscape:window-y="-11"
     inkscape:window-maximized="1"
     inkscape:current-layer="layer1" /><defs
     id="defs1"><linearGradient
       id="linearGradient501"
       inkscape:collect="always"><stop
         style="stop-color:#d02f65;stop-opacity:1;"
         offset="0"
         id="stop500" /><stop
         style="stop-color:#8f34cb;stop-opacity:1;"
         offset="1"
         id="stop501" /></linearGradient><inkscape:path-effect
       effect="rough_hatches"
       id="path-effect507-6-2"
       is_visible="true"
       lpeversion="1.2"
       direction="-448.17112,-460.34791 , 16.189192,0"
       dist_rdm="75;1869081391"
       growth="0"
       do_bend="true"
       bender="-448.17112,-455.34791 , 5,0"
       bottom_edge_variation="0.38364582;1"
       top_edge_variation="0.38364582;1"
       bottom_tgt_variation="0;1"
       top_tgt_variation="0;1"
       scale_bf="1"
       scale_bb="1"
       scale_tf="1"
       scale_tb="1"
       top_smth_variation="0;1"
       bottom_smth_variation="0;1"
       fat_output="true"
       stroke_width_top="1"
       stroke_width_bottom="1"
       front_thickness="1"
       back_thickness="0.25" /><radialGradient
       inkscape:collect="always"
       xlink:href="#linearGradient501"
       id="radialGradient483-9-1-5"
       cx="-523.62054"
       cy="-438.12494"
       fx="-523.62054"
       fy="-438.12494"
       r="24.525183"
       gradientTransform="matrix(0.99980695,-0.01964843,0.01060607,0.53968816,152.17,-214.58497)"
       gradientUnits="userSpaceOnUse" /><inkscape:path-effect
       effect="bend_path"
       id="path-effect1-3-5-3"
       is_visible="true"
       lpeversion="1"
       bendpath="m -546.84776,-461.67079 c 17.34388,-1.69887 34.11657,-2.4417 48.98668,0"
       prop_scale="1"
       scale_y_rel="false"
       vertical="false"
       hide_knot="false"
       bendpath-nodetypes="cc" /></defs><g
     inkscape:label="Calque 1"
     inkscape:groupmode="layer"
     id="layer1"
     transform="translate(406.24748,473.67546)"><path
       id="path5"
       style="fill:#16162a;fill-opacity:1;stroke:none;stroke-width:1;stroke-linecap:round;stroke-linejoin:round;stroke-opacity:1;paint-order:markers stroke fill"
       d="m -358.69748,-473.67548 -0.001,5.1e-4 -3.09955,0.0258 a 2.50025,2.50025 0 0 0 -2.05104,2.0836 l -2.06654,0.0176 a 2.50025,2.50025 0 0 0 -0.0367,0.0393 2.50025,2.50025 0 0 0 -1.05885,-1.04076 l -3.02359,0.0253 a 2.50025,2.50025 0 0 0 -1.06608,-1.04903 l -3.09955,0.0253 a 2.50025,2.50025 0 0 0 -2.48047,2.51974 l 0.006,0.62477 -1.68723,0.0139 a 2.50025,2.50025 0 0 0 -0.5116,0.51935 2.50025,2.50025 0 0 0 -0.52193,-0.5116 l -1.57975,0.0134 -0.006,-0.62477 a 2.50025,2.50025 0 0 0 -2.51923,-2.48047 l -7.2347,0.0605 a 2.50025,2.50025 0 0 0 -2.48047,2.51975 l 0.0625,7.70702 c -0.0541,0.005 -0.11577,0.0106 -0.14831,0.0134 -0.9501,0.0811 -1.8961,0.16667 -2.83807,0.25425 a 2.50025,2.50025 0 0 0 -0.0155,0.002 c -0.38223,0.0379 -0.76614,0.14992 -1.11517,0.33435 -0.34155,0.18037 -0.64618,0.42624 -0.89246,0.71675 -0.24851,0.29351 -0.44018,0.63265 -0.56275,1.00769 -0.11932,0.365 -0.17497,0.78095 -0.13643,1.20303 l -0.0103,-0.21652 0.0103,2.19314 0.004,-0.12505 c 1.7e-4,-0.004 -2e-4,-0.006 0,-0.01 v -0.008 l 0.002,-0.0191 0.002,-0.0414 c -0.0121,0.15632 -0.0132,0.32836 0.004,0.51005 l 0.46664,5.10718 c -0.003,-2.4e-4 -0.0196,-0.004 -0.0212,-0.004 a 2.50025,2.50025 0 0 0 -0.0315,-0.002 c -0.26919,-0.0216 -0.64972,-0.0206 -1.10381,0.11679 -7.6e-4,1.5e-4 -0.005,9.8e-4 -0.006,10e-4 h -5.2e-4 l -0.0109,0.002 0.01,-0.002 c -0.003,7.5e-4 -0.006,7.9e-4 -0.01,0.003 a 2.50025,2.50025 0 0 0 -0.004,0 h -0.002 c -0.50691,0.15674 -0.95208,0.43686 -1.31051,0.82011 a 2.50025,2.50025 0 0 0 -0.002,0.002 c -0.17071,0.18306 -0.33293,0.40048 -0.4687,0.66197 a 2.50025,2.50025 0 0 0 -0.002,0.004 c -0.003,0.006 -7.2e-4,0.0139 -0.004,0.0196 -0.24812,0.48743 -0.37174,1.07935 -0.31471,1.65416 l -0.0134,-0.23616 0.0103,2.17971 0.0119,-0.25011 c -0.0187,0.19483 -0.0201,0.39628 0.002,0.59944 l 0.27388,2.76779 a 2.50025,2.50025 0 0 0 0,0.002 c 0.119,1.20192 0.95948,2.22982 2.12649,2.57814 1.00049,0.30031 2.04981,0.39073 3.08405,0.29507 2.08209,-0.19274 4.06707,-1.1373 5.37125,-2.79311 0.0546,0.0623 0.0672,0.14447 0.12505,0.20515 1.28933,1.35133 3.16308,1.86115 4.88084,1.74615 0.81939,-0.0553 1.54595,-0.31077 2.18953,-0.64647 0.23643,0.0475 0.40749,0.25211 0.65836,0.23823 a 2.50025,2.50025 0 0 0 0.004,0 c 0.94732,-0.0535 1.89087,-0.10221 2.83238,-0.1447 0.4689,-0.0208 0.79168,-0.34774 1.17771,-0.56276 0.39891,0.18216 0.74341,0.48255 1.20664,0.46716 a 2.50025,2.50025 0 0 0 0.002,0 c 0.94185,-0.0316 1.88202,-0.0587 2.81843,-0.0765 0.59448,-0.011 1.04906,-0.35937 1.50792,-0.67386 0.46422,0.30222 0.92239,0.64299 1.5136,0.64079 0.93261,-0.002 1.86241,0.005 2.79105,0.0196 a 2.50025,2.50025 0 0 0 0.004,0 c 0.58911,0.009 1.04607,-0.32468 1.51154,-0.61753 0.44898,0.31604 0.8877,0.67145 1.47639,0.6935 a 2.50025,2.50025 0 0 0 0.006,0 c 0.62166,0.0219 1.2407,0.0549 1.86086,0.0858 l 0.008,1.50223 0.006,-0.19327 c -0.11144,1.53227 1.03982,3.07321 2.72645,3.20498 a 2.50025,2.50025 0 0 0 0.0103,0 c 0.88424,0.0656 1.7638,0.14243 2.64015,0.22841 1.70009,0.16733 3.08739,-1.16593 3.24269,-2.68563 l 0.12092,-1.18546 c 1.8279,0.082 3.68777,-0.48133 5.04466,-1.74614 l 0.002,-0.002 c 1.46186,-1.35782 2.32504,-3.23718 2.6603,-5.29063 v -0.002 c 0.15434,-0.94515 0.18598,-1.89209 0.06,-2.82773 0.0119,-0.11435 0.0288,-0.23179 0.0377,-0.34417 0.0156,-0.12945 0.0149,-0.1618 0.0103,-0.092 a 2.50025,2.50025 0 0 0 0.004,-0.0346 c 0.0182,-0.26363 0.0244,-0.52259 0.0212,-0.77928 v -0.002 c 10e-5,0.007 -3e-4,-0.0166 -0.002,-0.078 h 0.002 c -0.004,-0.20408 -0.0226,-0.42074 -0.0429,-0.63873 -6e-4,-0.0178 10e-4,-0.0214 0,-0.0393 a 2.50025,2.50025 0 0 0 -0.0114,-0.13436 v -0.006 a 2.50025,2.50025 0 0 0 0,-5.2e-4 2.50025,2.50025 0 0 0 0,-5.1e-4 2.50025,2.50025 0 0 0 0,-5.2e-4 2.50025,2.50025 0 0 0 0,-5.2e-4 c -0.11535,-0.97785 -0.41938,-1.96036 -0.95343,-2.84737 -1.05963,-1.77677 -2.97753,-2.8492 -4.98213,-3.09593 -0.008,-3.4e-4 -0.43584,-0.0177 -0.4377,-0.0176 -0.002,9e-5 0.25833,0.006 0.32815,0.008 -0.18492,-0.0196 -0.36894,-0.034 -0.5488,-0.0372 a 2.50025,2.50025 0 0 0 -0.008,0 c -0.21877,-0.003 -0.42634,0.005 -0.62477,0.0217 a 2.50025,2.50025 0 0 0 -0.008,0 c -0.43631,0.038 -0.78899,0.21283 -1.18184,0.33021 -0.15415,-0.0692 -0.273,-0.19032 -0.4377,-0.23254 a 2.50025,2.50025 0 0 0 0.4532,-1.37098 l -0.0822,-10.33425 a 2.50025,2.50025 0 0 0 -2.5213,-2.48047 z m -12.98526,2.17454 0.002,0.4315 -0.55449,0.56482 -0.77928,0.006 -0.56431,-0.55449 -0.004,-0.4315 z m -14.27975,3.04891 0.004,0.4315 -0.7674,0.78135 -0.68988,0.004 -0.6072,-0.59996 0.59583,-0.60513 z m 0.2465,3.91191 a 2.50025,2.50025 0 0 0 0.66198,0.65267 l 0.006,0.59376 -0.87075,0.008 0.002,0.16795 -1.46709,0.0119 -0.59945,-0.58808 0.60151,-0.6134 0.8537,-0.006 a 2.50025,2.50025 0 0 0 0.81235,-0.22686 z m -6.76961,1.38079 c 0.0235,0.001 0.0997,0.004 0.0997,0.004 -2.6e-4,-5e-5 0.15617,0.035 0.11679,0.0253 -0.002,-5.6e-4 -0.0179,-0.001 -0.0212,-0.002 -0.0557,-0.0119 -0.12398,-0.0167 -0.19533,-0.0269 z m 0.40824,0.0527 0.0331,0.0103 c -0.002,-5.6e-4 -0.0102,-10e-4 -0.0119,-0.002 -0.0128,-0.003 -0.008,-0.004 -0.0212,-0.008 z m 5.82032,3.37706 0.0253,0.006 c -0.008,-0.002 -0.008,6e-4 -0.0155,-0.002 -0.005,-9.1e-4 -0.005,-0.002 -0.01,-0.004 z m -6.74636,1.4981 c 0.064,0.003 0.0702,0.003 0.12919,0.006 a 2.50025,2.50025 0 0 0 0.008,0.006 c -0.0375,-0.003 -0.0773,-0.007 -0.13642,-0.0114 z m 0.15813,0.008 c 0.0995,0.005 0.2304,0.0103 0.23048,0.0103 l -0.0527,0.004 -0.0233,0.002 h -0.0196 c -0.003,2.2e-4 -0.0149,0.002 -0.0191,0.002 10e-6,0 -0.006,1e-5 -0.006,0 -10e-4,-1.2e-4 -0.0835,-0.008 -0.10955,-0.01 z m 34.04908,2.54454 a 2.50025,2.50025 0 0 0 0.008,0.016 l -0.004,0.002 c -0.003,-0.005 -4e-4,-0.013 -0.004,-0.0181 z m 0.01,0.0196 a 2.50025,2.50025 0 0 0 0.004,0.006 c -0.002,0.002 -0.002,0.004 -0.004,0.006 -0.002,-0.003 -0.002,-0.007 -0.004,-0.01 a 2.50025,2.50025 0 0 0 0.004,-0.002 z m -39.69887,0.10387 a 2.50025,2.50025 0 0 0 0.0253,0.0351 h -0.0217 z m 40.07198,0.75603 c 0.0501,0.004 0.10027,0.007 0.15038,0.0114 a 2.50025,2.50025 0 0 0 0.37878,0.6289 2.50025,2.50025 0 0 0 -0.0682,0.15244 v 0.002 a 2.50025,2.50025 0 0 0 0.3514,0.38654 c -0.22253,0.13111 -0.4566,0.25491 -0.63562,0.39998 h -0.28939 z m 4.03541,0.18862 v 5.1e-4 c 0.001,3e-5 0.003,-2e-5 0.004,0 0.0416,8.8e-4 0.0842,0.005 0.12713,0.0103 a 2.50025,2.50025 0 0 0 0.004,0 c 0.56511,0.0691 0.71911,0.2902 0.92966,0.49557 a 2.50025,2.50025 0 0 0 -0.91829,-0.25579 2.50025,2.50025 0 0 0 -0.38447,0.33744 c -0.18058,-0.0516 -0.37293,-0.17449 -0.53899,-0.19327 -0.16204,-0.0186 -0.33206,-0.0235 -0.50229,-0.0233 l 0.004,-0.0155 a 2.50025,2.50025 0 0 0 0.32247,-0.0134 c 0.11583,-0.0759 0.22113,-0.13463 0.31419,-0.17983 a 2.50025,2.50025 0 0 0 0.008,-0.004 c 0.20379,-0.0982 0.36045,-0.13909 0.51366,-0.15244 0.0442,-0.003 0.0824,-0.006 0.11679,-0.006 z m -1.31258,0.36587 0.002,0.006 c -0.0206,1.8e-4 -0.0399,-0.004 -0.0605,-0.004 z m 2.55643,0.0408 0.1819,0.19947 h -0.002 a 2.50025,2.50025 0 0 0 -0.21084,-0.0584 2.50025,2.50025 0 0 0 0.031,-0.14108 z m -0.0393,0.17622 h 5.1e-4 c 0.0302,0.0371 0.12763,0.0413 0.154,0.0816 l -0.21497,0.19327 a 2.50025,2.50025 0 0 0 0.0605,-0.27491 z m -45.08562,1.77767 0.1111,0.0191 c -0.0538,-0.01 -0.0586,-0.008 -0.0977,-0.0145 -0.003,-4.7e-4 -0.009,-0.004 -0.0134,-0.005 z m 1.08572,0.3762 v 0.004 a 2.50025,2.50025 0 0 0 -0.01,0.004 c -0.002,-8.6e-4 -0.002,-6.2e-4 -0.004,-0.002 0.007,-0.003 0.007,-0.003 0.0139,-0.006 z m -0.41186,0.17777 c -8.9e-4,5.4e-4 -0.003,0.003 -0.004,0.004 -2.7e-4,1.7e-4 -0.002,-1.7e-4 -0.002,0 0.003,-0.002 0.004,-0.002 0.006,-0.004 z m -0.0119,0.006 c 6.3e-4,-3.9e-4 0.001,3.7e-4 0.002,0 -0.0156,0.01 -0.0437,0.0347 -0.0682,0.0527 0.0191,-0.0132 0.031,-0.0291 0.0506,-0.0413 l 0.0134,-0.01 z m -0.5333,0.57103 a 2.50025,2.50025 0 0 0 -0.002,0.009 2.50025,2.50025 0 0 0 -0.0212,0.0429 c -0.0115,0.0302 0.0883,-0.18197 0.0233,-0.0522 z m 41.47034,3.95944 h 0.0966 c 0.0593,0.0118 0.11991,0.0269 0.17725,0.0336 0.26263,0.0303 0.54057,0.0407 0.82631,0.0196 a 2.50025,2.50025 0 0 0 0.0155,0 c 0.10328,-0.008 0.21167,-0.0284 0.32143,-0.0532 h 1.49448 c -0.0337,0.0551 -0.0662,0.11302 -0.10697,0.1509 a 2.50025,2.50025 0 0 0 -0.008,0.006 c -0.48456,0.45305 -0.84752,0.57205 -1.54099,0.48834 -0.16034,-0.0194 -0.25192,-0.0494 -0.5488,-0.32814 a 2.50025,2.50025 0 0 0 -0.72657,-0.3173 z"
       inkscape:export-filename="..\app\ressource\logo.svg"
       inkscape:export-xdpi="500"
       inkscape:export-ydpi="500" /><path
       style="fill:#16162a;fill-opacity:1;stroke:none;stroke-width:1.0828;stroke-linecap:round;stroke-linejoin:round;stroke-dasharray:none;stroke-opacity:1;paint-order:markers stroke fill"
       id="rect507-3-0"
       width="64.756767"
       height="3.8364582"
       x="-480.5495"
       y="-457.26614"
       inkscape:path-effect="#path-effect507-6-2"
       sodipodi:type="rect"
       d="m -415.79273,-453.42969 c 0,0 1.2684,-0.92194 1.00291,-1.889 -0.25929,-0.94451 -2.04007,-1.88901 -3.27723,-1.88901 -1.42467,0 -1.24098,0.70912 -1.58001,1.41823 -0.33902,0.70912 -1.20076,1.41823 -1.98314,1.41823 -0.96988,0 -1.00266,-0.68139 -1.56242,-1.36278 -0.55977,-0.68139 -1.64651,-1.36278 -2.20069,-1.36278 -0.74168,0 -0.26993,0.70911 -0.53077,1.41823 -0.26084,0.70911 -1.25427,1.41823 -2.19316,1.41823 -1.12639,0 -1.15897,-0.71811 -1.77056,-1.43621 -0.61158,-0.71811 -1.80219,-1.43622 -2.44174,-1.43622 -0.82706,0 -0.38067,0.70912 -0.53643,1.41823 -0.15577,0.70912 -0.91369,1.41823 -1.41623,1.41823 -0.69005,0 -0.48158,-0.77468 -1.00126,-1.54936 -0.51968,-0.77468 -1.76752,-1.54935 -2.10827,-1.54935 -0.52825,0 0.19389,0.70911 0.29728,1.41822 0.10339,0.70912 -0.41198,1.41823 -0.68212,1.41823 -0.45764,0 -0.32384,-0.67614 -0.986,-1.35229 -0.66215,-0.67614 -2.12025,-1.35229 -3.27678,-1.35229 -1.34404,0 -1.09332,0.70912 -1.3831,1.41823 -0.28979,0.70912 -1.12007,1.41823 -1.89296,1.41823 -0.96039,0 -1.01317,-0.68289 -1.71071,-1.36578 -0.69755,-0.68288 -2.03987,-1.36577 -3.04463,-1.36577 -1.19226,0 -0.9162,0.70911 -1.03004,1.41823 -0.11385,0.70911 -0.61761,1.41822 -0.63638,1.41822 -0.20626,0 0.1808,-0.70312 -0.15177,-1.40624 -0.33256,-0.70312 -1.38476,-1.40624 -1.78243,-1.40624 -0.58517,0 -0.0171,0.70912 -0.24685,1.41823 -0.22975,0.70912 -1.2573,1.41823 -2.30053,1.41823 -1.23074,0 -1.35034,-0.69488 -2.05534,-1.38975 -0.705,-0.69488 -1.9954,-1.38976 -2.94325,-1.38976 -1.13534,0 -0.86981,0.70912 -1.19932,1.41823 -0.32951,0.70912 -1.25407,1.41823 -2.03644,1.41823 -0.96988,0 -0.86876,-0.77917 -1.55034,-1.55835 -0.68158,-0.77917 -2.14587,-1.55835 -2.94669,-1.55835 -0.98831,0 -0.51425,0.70912 -0.56764,1.41823 -0.0534,0.70911 -0.63424,1.41823 -0.99924,1.41823 -0.5525,0 -0.43251,-0.70537 -1.09811,-1.41074 -0.6656,-0.70537 -2.11679,-1.41073 -3.10732,-1.41073 -1.17803,0 -0.80605,0.70911 -0.8797,1.41823 -0.0737,0.70911 -0.59295,1.41822 -0.82041,1.41822 -0.41495,0 -0.23293,-0.68101 -0.68391,-1.36203 -0.45098,-0.68101 -1.53496,-1.36203 -1.96108,-1.36203 -0.61363,0 0.41962,0.95013 0.37961,1.90025 -0.0399,0.94636 -1.1533,1.90024 -1.1533,1.90024 0,0 1.04941,-0.72103 1.43726,-1.40024 0.3998,-0.70012 0.16194,-1.40025 0.27557,-1.40025 0.30112,0 0.8599,0.68102 0.84818,1.36203 -0.0117,0.68102 -0.59393,1.36203 -0.054,1.36203 0.72745,0 1.97853,-0.70911 2.53398,-1.41822 0.55544,-0.70912 0.41524,-1.41823 1.09327,-1.41823 0.86554,0 1.77499,0.70536 1.96134,1.41073 0.18636,0.70537 -0.35038,1.41074 0.32712,1.41074 0.865,0 2.17764,-0.70912 2.71282,-1.41823 0.53518,-0.70911 0.2929,-1.41823 0.78122,-1.41823 0.67581,0 1.54821,0.77918 1.70041,1.55835 0.15219,0.77918 -0.41582,1.55835 0.67906,1.55835 1.28238,0 2.93872,-0.70911 3.75002,-1.41823 0.8113,-0.70911 0.77755,-1.41823 1.4129,-1.41823 0.82284,0 1.57863,0.69488 1.81151,1.38976 0.23289,0.69487 -0.0571,1.38975 1.29861,1.38975 1.54324,0 3.30257,-0.70911 4.0141,-1.41823 0.71154,-0.70911 0.37527,-1.41823 0.46043,-1.41823 0.27267,0 0.78466,0.70312 0.63951,1.40624 -0.14515,0.70312 -0.94743,1.40624 -0.61616,1.40624 0.51876,0 1.75431,-0.70911 2.34995,-1.41822 0.59563,-0.70912 0.55136,-1.41823 1.24362,-1.41823 0.87976,0 1.69561,0.68289 1.92919,1.36577 0.23357,0.68289 -0.11512,1.36578 0.97027,1.36578 1.27289,0 2.83496,-0.70911 3.60653,-1.41823 0.77157,-0.70911 0.75264,-1.41823 1.59667,-1.41823 1.03154,0 1.96775,0.67615 2.17052,1.35229 0.20276,0.67615 -0.32792,1.35229 0.25472,1.35229 0.77014,0 2.0173,-0.70911 2.3957,-1.41823 0.37839,-0.70911 -0.11196,-1.41822 -0.0837,-1.41822 0.21575,0 0.87475,0.77467 0.8681,1.54935 -0.007,0.77468 -0.67895,1.54936 0.13609,1.54936 1.00255,0 2.49226,-0.70911 3.12981,-1.41823 0.63755,-0.70911 0.42295,-1.41823 0.75,-1.41823 0.51456,0 1.15477,0.71811 1.27846,1.43622 0.12369,0.7181 -0.26914,1.43621 0.98226,1.43621 1.43889,0 3.16411,-0.70912 3.90673,-1.41823 0.74263,-0.70912 0.50267,-1.41823 0.74435,-1.41823 0.42918,0 0.99047,0.68139 1.08728,1.36278 0.0968,0.68139 -0.27085,1.36278 0.82403,1.36278 1.28237,0 2.8759,-0.70911 3.69671,-1.41823 0.82082,-0.70911 0.86892,-1.41823 1.79358,-1.41823 1.11217,0 2.1052,0.6945 2.16477,1.38901 0.0599,0.69857 -0.81431,1.389 -0.81431,1.389 z"
       transform="matrix(0.9985451,-0.05392302,0.17584482,3.2562896,152.69794,998.43478)" /><path
       id="path242-0-6-7-8"
       style="color:#000000;-inkscape-font-specification:'Segoe UI Bold';fill:url(#radialGradient483-9-1-5);fill-opacity:1;stroke-linecap:round;stroke-linejoin:round;-inkscape-stroke:none;paint-order:markers stroke fill"
       d="m -392.81301,-460.70307 c -0.0162,-1.8e-4 -0.0326,7.3e-4 -0.0491,0.002 -0.001,1e-4 -0.002,-6.3e-4 -0.004,-5.2e-4 -0.0743,0.006 -0.14797,0.0133 -0.22221,0.0196 -0.94227,0.0804 -1.8817,0.16504 -2.81894,0.25218 -0.0705,0.007 -0.13615,0.0269 -0.19482,0.0579 -0.0587,0.031 -0.11,0.0725 -0.15193,0.12195 -0.0419,0.0494 -0.0743,0.10688 -0.0946,0.16899 -0.0203,0.0621 -0.029,0.12892 -0.0227,0.19792 l 0.01,2.19366 c -5e-5,6.9e-4 5e-5,10e-4 0,0.002 -0.002,0.0258 -0.002,0.052 5.2e-4,0.0785 l 0.64802,7.07037 c -0.0459,0.20643 -0.10202,0.3913 -0.17777,0.53071 -8.3e-4,0.002 -0.002,0.003 -0.003,0.005 v 5.2e-4 c -8e-4,0.001 -0.002,0.003 -0.003,0.004 -0.0531,0.0963 -0.11035,0.18018 -0.17466,0.25269 -0.002,0.002 -0.003,0.004 -0.005,0.006 -0.0655,0.0728 -0.13792,0.13421 -0.22066,0.185 -7.4e-4,4.5e-4 -0.002,10e-4 -0.003,0.002 -5.3e-4,3.2e-4 -10e-4,7.1e-4 -0.002,10e-4 -0.16891,0.10257 -0.37968,0.1621 -0.65629,0.1881 -0.13272,0.0125 -0.2617,0.0154 -0.38706,0.008 -0.12517,-0.008 -0.24754,-0.0255 -0.36742,-0.0538 -0.23993,-0.0566 -0.47125,-0.15524 -0.70228,-0.29765 h -5.2e-4 c -0.132,-0.0817 -0.27767,-0.0933 -0.40618,-0.0543 h -5.1e-4 c -5.2e-4,1.5e-4 -0.001,3.5e-4 -0.002,5.1e-4 -0.0849,0.0262 -0.1621,0.0747 -0.22273,0.13953 -0.0304,0.0326 -0.0571,0.0693 -0.078,0.10955 v 5.2e-4 c -0.0418,0.0807 -0.0624,0.1752 -0.0522,0.27802 v 5.2e-4 l 0.009,2.17816 c -0.003,0.0312 -0.003,0.0635 5.2e-4,0.0966 l 0.27388,2.78691 c 0.02,0.202 0.16002,0.37298 0.35502,0.43098 0.675,0.203 1.39186,0.26796 2.13786,0.19896 1.64199,-0.152 2.94221,-0.79412 3.76721,-1.93012 0.829,-1.136 1.14208,-2.6629 0.98908,-4.5129 l -0.003,-0.65061 c 0.0435,-0.50892 0.0407,-1.05051 -0.007,-1.62315 v -5.2e-4 l -0.65991,-7.98659 c -0.0171,-0.20512 -0.15963,-0.37118 -0.34829,-0.43202 -0.002,-6.7e-4 -0.004,-0.001 -0.006,-0.002 -0.0466,-0.0144 -0.0958,-0.0227 -0.14676,-0.0233 z m 20.86333,2.58537 c -0.18883,0 -0.37591,0.0116 -0.55914,0.0351 -0.55017,0.0708 -1.07203,0.24702 -1.54978,0.52452 v 5.2e-4 h -5.1e-4 c -0.1187,0.069 -0.20881,0.16208 -0.29404,0.25941 -0.0853,0.0974 -0.16603,0.19873 -0.26562,0.28474 l -0.005,-0.35347 c -0.002,-0.138 -0.0619,-0.26188 -0.15658,-0.35088 -0.0472,-0.0444 -0.10341,-0.0806 -0.16536,-0.1049 -0.062,-0.0243 -0.12995,-0.0372 -0.20102,-0.0362 h -5.2e-4 c -5.2e-4,10e-6 -0.001,-1e-5 -0.002,0 -1.00431,0.017 -2.00729,0.0419 -3.0086,0.0729 h -5.2e-4 -5.1e-4 c -0.0704,0.002 -0.13725,0.0184 -0.19741,0.0455 l -5.1e-4,5.2e-4 h -5.2e-4 c -5.8e-4,2.6e-4 -9.7e-4,7.7e-4 -0.002,10e-4 -0.0591,0.027 -0.11196,0.0645 -0.15606,0.11007 -5e-4,5.2e-4 -0.002,0.001 -0.002,0.002 -6e-4,6.3e-4 -9.6e-4,10e-4 -0.002,0.002 -0.0427,0.045 -0.0762,0.0974 -0.0997,0.15503 -0.002,0.004 -0.003,0.007 -0.005,0.0114 -0.022,0.0578 -0.0336,0.12083 -0.032,0.18603 4e-5,10e-4 -5.6e-4,0.002 -5.1e-4,0.004 l 5.1e-4,0.0165 0.01,2.25774 0.33125,9.47126 c 0.01,0.276 0.23698,0.49166 0.50798,0.48266 0.953,-0.032 1.90619,-0.058 2.85719,-0.076 0.27,-0.005 0.48459,-0.23301 0.48059,-0.50901 l -0.01,-2.2748 -0.0527,-3.41271 v -5.2e-4 c 0.0417,-0.38115 0.15052,-0.66788 0.30747,-0.88211 h 0.002 c 0.22,-0.29 0.43625,-0.40163 0.80925,-0.40463 0.39,-0.003 0.57212,0.0911 0.72812,0.29611 0.14719,0.19312 0.26405,0.54836 0.28061,1.0914 l 0.0124,3.28972 v 5.2e-4 l 0.01,2.27428 c 10e-4,0.276 0.21986,0.49864 0.48886,0.49764 0.948,-0.002 1.89517,0.004 2.84117,0.0191 0.268,0.004 0.49006,-0.21596 0.49506,-0.49195 l 0.1049,-5.28702 c 0.01,-0.534 0.14299,-0.9272 0.38499,-1.2392 0.238,-0.305 0.45075,-0.40584 0.79375,-0.39584 0.399,0.011 0.58136,0.11383 0.73536,0.33383 0.0754,0.10824 0.14069,0.26287 0.18551,0.46508 l -0.13125,3.90209 c -4e-5,10e-4 5.4e-4,0.003 5.1e-4,0.004 -10e-6,3.5e-4 1e-5,6.9e-4 0,10e-4 l 0.009,2.27067 c -0.009,0.275 0.20068,0.50573 0.46768,0.51573 0.938,0.033 1.87409,0.0762 2.80809,0.12919 0.266,0.016 0.49612,-0.19426 0.51212,-0.47026 l 0.35811,-5.86166 c 0.0238,-0.38677 0.0224,-0.75241 -0.005,-1.09657 l -0.005,-1.17874 c 0.0506,-0.8325 -0.0101,-1.56877 -0.20825,-2.1978 -6.7e-4,-0.002 -10e-4,-0.004 -0.002,-0.006 -0.0789,-0.24905 -0.17954,-0.48183 -0.30334,-0.6966 -9.4e-4,-0.002 -0.002,-0.003 -0.003,-0.005 -0.0616,-0.10635 -0.12885,-0.20824 -0.20206,-0.30592 v -5.2e-4 l -5.1e-4,-5.2e-4 c -0.0743,-0.099 -0.15505,-0.19259 -0.24082,-0.28008 -0.17179,-0.17523 -0.36605,-0.3276 -0.5798,-0.45631 -0.10682,-0.0643 -0.21915,-0.12307 -0.33538,-0.1757 -0.11625,-0.0526 -0.23729,-0.0997 -0.36226,-0.14056 -0.12497,-0.0409 -0.25458,-0.0758 -0.38757,-0.1049 -0.26617,-0.0583 -0.54774,-0.0934 -0.84181,-0.10438 -1.01634,-0.0374 -1.88753,0.27818 -2.60914,0.82992 -0.002,0.002 -0.005,0.003 -0.007,0.005 -0.002,0.002 -0.004,0.004 -0.006,0.006 -0.1156,0.0891 -0.22753,0.184 -0.33538,0.28474 -0.002,0.002 -0.005,0.004 -0.007,0.006 -0.002,0.002 -0.005,0.005 -0.007,0.007 -0.10678,0.10055 -0.20994,0.20674 -0.30903,0.31781 -0.002,0.003 -0.005,0.005 -0.007,0.007 -0.15719,-0.23561 -0.33521,-0.45159 -0.53278,-0.64337 -0.0988,-0.0958 -0.20275,-0.1857 -0.31161,-0.26872 -0.10886,-0.083 -0.22313,-0.15948 -0.3421,-0.22841 -0.11898,-0.0689 -0.24349,-0.13088 -0.37259,-0.18448 -0.1291,-0.0536 -0.26332,-0.0994 -0.40256,-0.13643 -0.13925,-0.037 -0.28417,-0.0655 -0.43356,-0.0847 -0.14941,-0.0192 -0.30397,-0.0288 -0.46354,-0.0289 z m -24.2502,0.0972 c 9e-5,-9e-5 4.2e-4,8e-5 5.2e-4,0 l 0.20515,2.23603 z m 15.51223,0.32866 c -0.99683,0.043 -1.99414,0.0923 -2.98896,0.14728 -0.0706,0.004 -0.13772,0.0215 -0.19741,0.0501 -0.0589,0.0283 -0.11069,0.0678 -0.15399,0.11472 -5.9e-4,6.3e-4 -0.001,9.2e-4 -0.002,0.002 v 5.2e-4 c -4.2e-4,4.6e-4 -6.2e-4,0.001 -10e-4,0.002 -0.0866,0.0956 -0.13664,0.22285 -0.12868,0.36019 l 0.009,2.22053 v 0.002 c -8.6e-4,0.0175 -10e-4,0.0354 0,0.0532 l 0.22635,3.91294 c -0.0207,0.0681 -0.041,0.1364 -0.0692,0.19637 v 5.2e-4 c -0.0386,0.0819 -0.0843,0.15686 -0.13591,0.22582 -3.2e-4,4.3e-4 8.6e-4,0.002 5.2e-4,0.002 -0.10396,0.13566 -0.21573,0.23487 -0.3514,0.30334 -0.0664,0.0335 -0.13889,0.0596 -0.21911,0.0791 -0.004,9.9e-4 -0.008,0.002 -0.0124,0.003 -0.0806,0.0187 -0.16922,0.031 -0.26769,0.0372 -0.42322,0.0265 -0.64015,-0.0628 -0.81752,-0.25942 -0.1771,-0.1963 -0.32748,-0.5742 -0.36742,-1.17667 l -0.36122,-5.4529 c -0.005,-0.068 -0.0231,-0.13224 -0.0522,-0.18965 -9.1e-4,-0.002 -0.002,-0.003 -0.003,-0.005 -0.0897,-0.17189 -0.27662,-0.28386 -0.48576,-0.27027 -0.001,8e-5 -0.002,-6e-4 -0.004,-5.1e-4 -0.0732,0.005 -0.14598,0.011 -0.21911,0.016 -0.8452,0.0577 -1.68882,0.11898 -2.53111,0.18397 -0.0731,0.006 -0.14654,0.0103 -0.21963,0.016 -10e-4,10e-5 -0.002,9.3e-4 -0.004,10e-4 -0.13876,0.0115 -0.2604,0.077 -0.34468,0.17363 -0.0849,0.0976 -0.13243,0.22698 -0.12144,0.36483 l 0.009,2.20555 c -10e-4,0.0229 -10e-4,0.0458 5.1e-4,0.0693 l 0.44856,5.70611 c 0.11,1.396 0.48204,2.49288 1.18804,3.23288 0.707,0.741 1.72421,1.0562 2.90421,0.9772 0.934,-0.063 1.68588,-0.54593 2.33888,-1.19992 l 0.0181,0.31574 c 0.016,0.277 0.2499,0.48835 0.5209,0.47335 0.956,-0.054 1.90988,-0.10324 2.86288,-0.14624 0.271,-0.012 0.48125,-0.24593 0.47025,-0.52193 l -0.01,-2.27428 -0.39429,-9.47074 c -0.003,-0.069 -0.0206,-0.13449 -0.0491,-0.19327 -0.0857,-0.176 -0.27301,-0.29476 -0.48576,-0.28577 z m 20.42666,0.22789 c -0.0526,0.001 -0.10413,0.01 -0.15193,0.0253 -0.19073,0.0616 -0.33281,0.22774 -0.3483,0.43253 -8e-5,0.001 -9.5e-4,0.002 -0.001,0.003 l -0.48679,6.87452 -0.48679,6.87452 c -0.002,0.0236 -8.7e-4,0.0469 5.1e-4,0.0698 l 0.01,2.20452 c -0.02,0.275 0.17188,0.51175 0.42788,0.53175 0.903,0.067 1.8031,0.14402 2.7001,0.23202 0.254,0.025 0.48256,-0.1761 0.51056,-0.4501 l 0.44338,-4.35374 c 0.54,0.507 1.16664,0.89206 1.96164,0.98806 1.342,0.162 2.56411,-0.22412 3.5481,-1.14412 0.988,-0.917 1.62901,-2.22788 1.89601,-3.86488 0.14197,-0.86853 0.14991,-1.67124 0.009,-2.39779 -0.006,0.0409 -0.0114,0.0813 -0.0181,0.12248 -0.1,0.61066 -0.25198,1.176 -0.45424,1.6924 0.20216,-0.5163 0.35404,-1.08127 0.45372,-1.69189 0.007,-0.0439 0.0106,-0.0861 0.017,-0.1297 4.4e-4,0.002 10e-4,0.004 0.002,0.007 0.13333,-0.89221 0.12483,-1.71486 -0.0465,-2.45411 v -5.2e-4 c -0.0708,-0.30551 -0.16973,-0.59647 -0.29714,-0.87281 -0.003,-0.007 -0.006,-0.0135 -0.009,-0.0202 -0.0621,-0.13282 -0.13102,-0.26236 -0.2067,-0.38809 -0.002,-0.003 -0.003,-0.007 -0.005,-0.01 -0.002,-0.003 -0.004,-0.005 -0.005,-0.008 -0.15765,-0.26369 -0.34446,-0.50235 -0.55759,-0.71468 l -5.1e-4,-5.2e-4 c -0.43077,-0.42898 -0.96894,-0.75064 -1.59112,-0.9555 h -5.2e-4 c -0.15544,-0.0512 -0.31607,-0.0953 -0.48162,-0.13177 h -5.2e-4 c -0.16572,-0.0364 -0.33595,-0.0654 -0.51108,-0.0868 -0.13227,-0.0162 -0.26324,-0.0251 -0.39119,-0.0274 h -5.1e-4 c -0.12811,-0.002 -0.25439,0.003 -0.37828,0.0134 -0.49245,0.0429 -0.95197,0.18432 -1.38234,0.39171 -0.003,0.002 -0.007,0.003 -0.0103,0.005 -10e-4,6e-4 -0.002,10e-4 -0.004,0.002 -0.20363,0.0989 -0.40026,0.21295 -0.59118,0.33796 l -0.001,-0.29507 c 0.027,-0.274 -0.18173,-0.52029 -0.46973,-0.54829 -1.013,-0.098 -2.02606,-0.18497 -3.03806,-0.26097 -0.0179,-0.001 -0.0356,-0.001 -0.0532,-0.001 z m -23.78614,2.3921 0.20102,3.47576 c 2.4e-4,0.004 -2.2e-4,0.007 0,0.0114 -2.1e-4,-0.004 -3e-4,-0.007 -5.2e-4,-0.0109 l -0.20102,-3.47576 z m 10.8753,0.21136 c 0.004,5.4e-4 0.007,9.8e-4 0.0109,0.002 -0.004,-5.7e-4 -0.007,-10e-4 -0.0109,-0.002 z m -1.0542,0.38602 c -0.001,0.002 -0.002,0.003 -0.004,0.005 h -5.2e-4 c 10e-4,-0.002 0.003,-0.003 0.004,-0.005 z m -0.006,0.005 h 5.2e-4 c -10e-4,10e-4 -0.002,0.003 -0.003,0.005 10e-4,-10e-4 0.002,-0.003 0.003,-0.005 z m 6.16138,0.0403 c -10e-4,0.002 -0.002,0.003 -0.004,0.005 -0.002,0.002 -0.003,0.004 -0.005,0.007 0.002,-0.002 0.003,-0.004 0.004,-0.006 0.002,-0.002 0.003,-0.003 0.005,-0.005 z m -6.29987,0.19534 c -0.002,0.004 -0.004,0.008 -0.006,0.0119 0.002,-0.004 0.004,-0.008 0.006,-0.0119 z m 18.91926,0.22789 c 0.003,3e-4 0.005,-3.1e-4 0.008,0 0.003,3.6e-4 0.005,0.001 0.008,0.002 -0.003,-3.3e-4 -0.005,-7.1e-4 -0.008,-10e-4 -0.003,-3e-4 -0.005,-2.3e-4 -0.008,-5.2e-4 z m -19.02416,0.0651 c -0.001,0.005 -0.003,0.0103 -0.004,0.0155 10e-4,-0.005 0.003,-0.0104 0.004,-0.0155 z m 6.12314,0.0465 c -10e-4,0.004 -0.003,0.009 -0.004,0.0134 0.001,-0.004 0.003,-0.009 0.004,-0.0134 z m 13.54956,0.0698 c 0.003,0.002 0.006,0.003 0.008,0.005 -0.003,-0.002 -0.005,-0.003 -0.008,-0.005 z m -19.7373,0.23564 c -7.6e-4,0.007 -10e-4,0.0138 -0.002,0.0207 7.1e-4,-0.007 10e-4,-0.0138 0.002,-0.0207 z m 6.07973,0.40359 -0.10438,5.28805 c -0.002,0.138 -0.0596,0.26162 -0.14935,0.35037 -0.0448,0.0442 -0.0976,0.0802 -0.15606,0.10438 0.0584,-0.0243 0.11132,-0.06 0.15606,-0.10438 0.0897,-0.0889 0.14615,-0.21292 0.14883,-0.35088 z m 14.24099,0.35864 c 7.1e-4,0.005 10e-4,0.0103 0.002,0.0155 -6.7e-4,-0.005 -10e-4,-0.0104 -0.002,-0.0155 z m -8.16229,0.0372 c 1.6e-4,10e-4 3.6e-4,0.002 5.2e-4,0.003 l -0.31264,5.11752 z m 5.18315,0.57155 c -2.9e-4,0.003 -7.5e-4,0.005 -10e-4,0.008 l -0.0382,0.37672 0.0377,-0.3762 c 3.2e-4,-0.003 0.001,-0.006 0.002,-0.009 z m 2.96829,0.35243 c -5.3e-4,0.004 -4.9e-4,0.008 -0.001,0.0119 -1.2e-4,9.4e-4 -4e-4,0.002 -5.2e-4,0.003 v -0.003 c 5.1e-4,-0.004 0.001,-0.008 0.002,-0.0119 z m -1.45882,0.12144 c 0.0806,-0.002 0.16481,0.002 0.25424,0.0124 0.548,0.062 0.83323,0.24201 1.02423,0.55501 0.0105,0.0172 0.0206,0.0353 0.0305,0.0537 -0.1326,0.47976 -0.31832,0.8467 -0.54364,1.09451 v 5.1e-4 c -0.001,10e-4 -0.003,0.002 -0.004,0.003 -0.15994,0.17578 -0.32142,0.29422 -0.50747,0.36174 -5.7e-4,2.1e-4 -10e-4,8.3e-4 -0.002,0.001 -3.6e-4,1.3e-4 -6.8e-4,3.9e-4 -10e-4,5.2e-4 -0.18776,0.0675 -0.40078,0.0835 -0.66301,0.0537 -0.42861,-0.0486 -0.68701,-0.20531 -0.91002,-0.54053 -0.0433,-0.0651 -0.0775,-0.13574 -0.1111,-0.20671 0.10013,-0.43423 0.27973,-0.75404 0.53227,-0.99425 0.27625,-0.26244 0.55148,-0.38658 0.90072,-0.39481 z m -34.36845,0.9064 c 0.0133,0.16183 0.0296,0.32077 0.0501,0.47439 0.0218,0.16305 0.0478,0.32132 0.078,0.47491 -0.0302,-0.1537 -0.0563,-0.31177 -0.078,-0.47491 -0.0205,-0.15388 -0.0369,-0.3123 -0.0501,-0.47439 z m -1.61695,0.46612 5.1e-4,0.009 c -0.0748,0.61657 -0.22049,1.18249 -0.44131,1.6924 -0.0718,0.16588 -0.15157,0.32606 -0.23927,0.48008 -0.0861,0.15121 -0.18006,0.29664 -0.28163,0.43615 0.10158,-0.13965 0.19554,-0.28481 0.28163,-0.43615 0.0876,-0.15406 0.16747,-0.31418 0.23927,-0.48008 0.22165,-0.51217 0.3663,-1.0815 0.4408,-1.70119 z m 1.74769,0.49506 c 0.0299,0.15057 0.064,0.29646 0.10232,0.4377 -0.0383,-0.14123 -0.0724,-0.28716 -0.10232,-0.4377 z m 39.21931,0.27079 c -0.0657,0.16647 -0.13669,0.32755 -0.2129,0.48369 0.0762,-0.15614 0.14721,-0.31721 0.2129,-0.48369 z m -39.11337,0.18087 c 0.0384,0.14042 0.0806,0.27625 0.12764,0.40721 -0.047,-0.13097 -0.0892,-0.2668 -0.12764,-0.40721 z m 38.89117,0.32142 c -0.0779,0.15819 -0.16102,0.31163 -0.2496,0.45889 -0.0905,0.15037 -0.18628,0.29485 -0.28784,0.43357 -0.10156,0.13871 -0.20885,0.27162 -0.32143,0.39842 -0.11258,0.12681 -0.23048,0.24763 -0.35398,0.36225 0.12332,-0.11453 0.24155,-0.23559 0.35398,-0.36225 0.1126,-0.12684 0.21985,-0.25969 0.32143,-0.39842 0.10158,-0.13874 0.19737,-0.2832 0.28784,-0.43357 0.0887,-0.14737 0.1717,-0.30059 0.2496,-0.45889 z m -38.75785,0.10077 c 0.048,0.13242 0.10053,0.25993 0.15762,0.38241 0.0582,0.12495 0.12116,0.24476 0.18913,0.35915 0.0653,0.10985 0.1353,0.21428 0.20981,0.31419 -0.0744,-0.0998 -0.1446,-0.20442 -0.20981,-0.31419 -0.068,-0.11442 -0.13089,-0.23417 -0.18913,-0.35915 -0.057,-0.1224 -0.10965,-0.2501 -0.15762,-0.38241 z m 0.57361,1.07849 c 0.0757,0.0998 0.15598,0.1947 0.24133,0.28422 0.0883,0.0926 0.18133,0.17903 0.27905,0.25838 0.0977,0.0794 0.19987,0.15186 0.30645,0.21808 0.10658,0.0662 0.21743,0.1261 0.33227,0.17931 0.11485,0.0532 0.23404,0.0997 0.35657,0.14005 0.12253,0.0403 0.24864,0.0742 0.37827,0.1018 0.12947,0.0276 0.26246,0.0491 0.39843,0.0641 -0.13613,-0.0149 -0.2688,-0.0365 -0.39843,-0.0641 -0.12962,-0.0276 -0.25574,-0.0615 -0.37827,-0.1018 -0.12253,-0.0403 -0.24172,-0.0868 -0.35657,-0.14005 -0.11484,-0.0532 -0.2257,-0.11311 -0.33227,-0.17931 -0.10657,-0.0662 -0.20874,-0.13873 -0.30645,-0.21808 -0.0977,-0.0793 -0.1908,-0.16524 -0.27905,-0.25786 v -5.2e-4 c -0.0853,-0.0895 -0.16563,-0.18438 -0.24133,-0.28422 z m 16.72508,0.009 c 0.001,0.066 0.0133,0.12923 0.0372,0.18655 -0.0212,-0.0508 -0.0336,-0.10598 -0.0372,-0.16382 z m -11.24789,0.0574 c -0.16117,0.1615 -0.32817,0.3129 -0.50281,0.44958 -0.0884,0.0692 -0.17897,0.13448 -0.27131,0.19585 -0.18466,0.12275 -0.37745,0.22903 -0.5798,0.31471 -0.10118,0.0428 -0.20449,0.0805 -0.31058,0.11266 -0.10609,0.0321 -0.21476,0.0586 -0.32608,0.0791 -0.11132,0.0204 -0.22522,0.0351 -0.3421,0.0429 -0.14719,0.01 -0.29219,0.0133 -0.43408,0.0109 0.14208,0.002 0.28666,-9.9e-4 0.43408,-0.0109 0.11682,-0.008 0.23083,-0.0224 0.3421,-0.0429 0.11128,-0.0205 0.22002,-0.0469 0.32608,-0.0791 0.10606,-0.0322 0.20941,-0.0698 0.31058,-0.11266 0.20233,-0.0857 0.39511,-0.19202 0.5798,-0.31471 0.0924,-0.0613 0.18288,-0.12672 0.27131,-0.19585 0.17476,-0.13662 0.34149,-0.2882 0.50281,-0.44958 z m 5.3144,0.0641 c 0.003,0.0664 0.0184,0.12907 0.0439,0.18604 -0.0255,-0.0569 -0.0409,-0.11968 -0.0439,-0.18604 z m 3.82147,0.0202 5.2e-4,0.0315 c -0.023,0.0749 -0.063,0.14265 -0.11524,0.19792 -0.0435,0.0459 -0.0951,0.0837 -0.15296,0.11007 0.0579,-0.0264 0.10957,-0.0641 0.15296,-0.11007 0.0588,-0.0623 0.0936,-0.14297 0.11472,-0.22944 z m -18.14514,0.0331 c -0.10043,0.13799 -0.20768,0.26831 -0.32195,0.39171 0.11416,-0.12324 0.22158,-0.25391 0.32195,-0.39171 z m 20.29437,0.0124 c 0.0245,0.0587 0.06,0.11148 0.10335,0.15607 -0.0434,-0.0446 -0.0788,-0.0974 -0.10335,-0.15607 z m 9.65781,0.06 c -0.009,0.1375 -0.0702,0.25865 -0.16279,0.34365 -0.0462,0.0424 -0.10014,0.0758 -0.15916,0.0977 0.059,-0.0219 0.11291,-0.0553 0.15916,-0.0977 0.0926,-0.0849 0.15431,-0.20628 0.16279,-0.34365 z m -15.582,0.0661 c 0.0268,0.0577 0.0634,0.10948 0.10852,0.15245 -0.0449,-0.043 -0.0818,-0.0947 -0.10852,-0.15245 z m 11.87111,0.0295 c 0.0164,0.0277 0.0289,0.0583 0.0501,0.0822 -0.0186,-0.021 -0.0357,-0.0432 -0.0507,-0.0672 z m -5.83995,0.004 c 0.0439,0.0442 0.0959,0.0801 0.15348,0.10491 0.0583,0.0251 0.12197,0.0394 0.18913,0.0393 -0.0668,-7e-5 -0.13096,-0.0142 -0.18913,-0.0393 -0.0576,-0.0248 -0.10949,-0.0606 -0.15348,-0.10491 z m -11.36623,0.0253 c 0.004,0.0679 0.0212,0.13165 0.0491,0.18913 0.0284,0.0584 0.0675,0.11025 0.11472,0.15296 0.0944,0.0854 0.22072,0.13434 0.35657,0.12661 -0.136,0.008 -0.26232,-0.0411 -0.35657,-0.12661 -0.0471,-0.0428 -0.0864,-0.0945 -0.11472,-0.15296 -0.0279,-0.0575 -0.0447,-0.12132 -0.0491,-0.18913 z m 17.26251,0.0599 c 0.0417,0.0451 0.0912,0.0825 0.14676,0.10904 0.0569,0.0272 0.11952,0.0435 0.18603,0.046 -0.0664,-0.003 -0.12933,-0.0188 -0.18603,-0.046 -0.0556,-0.0266 -0.10515,-0.064 -0.14676,-0.10904 z m -13.48393,0.01 5.1e-4,0.0165 c -0.0158,0.0259 -0.0337,0.0503 -0.0537,0.0729 0.0231,-0.0259 0.0358,-0.0591 0.0532,-0.0894 z m 1.66553,0.0243 c 0.0458,0.0435 0.0994,0.078 0.15864,0.10128 0.0595,0.0233 0.12467,0.0353 0.19224,0.0331 0.0311,-10e-4 0.062,-0.002 0.093,-0.003 -0.0308,0.001 -0.0616,0.002 -0.0925,0.003 -0.0679,0.002 -0.13306,-0.01 -0.19276,-0.0336 -0.059,-0.0233 -0.11304,-0.0578 -0.15864,-0.10128 z m 26.02322,0 c -0.12048,0.11258 -0.24474,0.2166 -0.37207,0.31316 0.1274,-0.0966 0.25155,-0.20051 0.37207,-0.31316 z m -16.72715,0.007 c -0.0584,0.0242 -0.12255,0.0372 -0.18913,0.0362 0.0668,9.8e-4 0.1307,-0.0119 0.18913,-0.0362 z m -5.89835,0.008 c -0.0579,0.0263 -0.12153,0.0417 -0.18862,0.0429 0.0672,-10e-4 0.13075,-0.0165 0.18862,-0.0429 z m -5.1201,0.0537 c -0.0422,0.0465 -0.0924,0.085 -0.14934,0.11265 -0.0576,0.028 -0.12164,0.0453 -0.18914,0.0486 -0.0344,0.002 -0.0689,0.003 -0.10335,0.005 0.0342,-0.002 0.0686,-0.004 0.10284,-0.005 0.0677,-0.003 0.13201,-0.0201 0.18965,-0.0481 0.0568,-0.0276 0.10717,-0.0663 0.14934,-0.11265 z m -13.08912,0.0424 c -0.11601,0.1244 -0.2388,0.24192 -0.36845,0.3514 -0.13171,0.1112 -0.27021,0.21476 -0.41548,0.31058 0.14516,-0.0957 0.28384,-0.19949 0.41548,-0.31058 0.12977,-0.10953 0.25232,-0.22692 0.36845,-0.3514 z m 35.32549,0.0444 c 0.13486,0.12658 0.27509,0.24572 0.4222,0.3545 0.14711,0.10878 0.3012,0.20725 0.46302,0.29301 0.15972,0.0847 0.32743,0.15677 0.50384,0.21394 -0.17649,-0.0572 -0.34405,-0.12926 -0.50384,-0.21394 -0.16181,-0.0858 -0.31594,-0.18426 -0.46302,-0.29301 -0.14708,-0.10875 -0.28745,-0.228 -0.4222,-0.3545 z m 0,0 -0.44287,4.35426 c -0.014,0.137 -0.0785,0.25555 -0.17104,0.33693 -0.0925,0.0812 -0.21317,0.12566 -0.34004,0.11317 -0.016,-0.002 -0.0321,-0.003 -0.0481,-0.005 0.0158,0.002 0.0317,0.003 0.0475,0.004 0.12699,0.0126 0.24804,-0.0313 0.34055,-0.11265 0.0925,-0.0814 0.15661,-0.20031 0.17053,-0.33745 z m -5.3635,0.0667 c -0.059,0.0217 -0.1228,0.0322 -0.18913,0.0284 0.0662,0.004 0.13013,-0.007 0.18913,-0.0284 z m 10.48515,0.10231 c -0.12774,0.096 -0.25857,0.18469 -0.39274,0.26459 -0.13236,0.0788 -0.26796,0.1493 -0.40618,0.21239 0.1383,-0.0631 0.27376,-0.13355 0.40618,-0.21239 0.1342,-0.0799 0.265,-0.16857 0.39274,-0.26459 z m -34.28989,0.44649 c 0.13597,0.015 0.27513,0.0233 0.41702,0.0258 -0.14187,-0.002 -0.28105,-0.0109 -0.41702,-0.0258 z m -6.9417,0.002 c -0.14516,0.0957 -0.29709,0.18369 -0.45527,0.26406 -0.15831,0.0804 -0.32268,0.15353 -0.49351,0.21859 0.17068,-0.065 0.33533,-0.13826 0.49351,-0.21859 0.15832,-0.0804 0.30998,-0.16828 0.45527,-0.26406 z m 40.40425,0.0413 c -0.13879,0.0621 -0.28003,0.11651 -0.42426,0.16278 -0.14573,0.0467 -0.29407,0.0852 -0.44493,0.11575 0.15082,-0.0305 0.29924,-0.069 0.44493,-0.11575 0.14414,-0.0462 0.28557,-0.10076 0.42426,-0.16278 z m -45.54295,0.18913 c 0.005,0.0505 0.0177,0.099 0.0367,0.14418 0.019,0.0454 0.0445,0.0875 0.0754,0.12506 0.0309,0.0375 0.0673,0.0704 0.10801,0.0977 -0.0408,-0.0273 -0.077,-0.0601 -0.10801,-0.0977 -0.031,-0.0376 -0.0564,-0.0797 -0.0754,-0.12506 -0.0189,-0.0451 -0.0316,-0.0938 -0.0367,-0.14418 z m 42.66251,0.0207 c 0.0839,0.0264 0.16928,0.0499 0.25735,0.0693 0.088,0.0194 0.17835,0.0347 0.27078,0.0465 -0.0925,-0.0118 -0.1827,-0.0272 -0.27078,-0.0465 -0.088,-0.0193 -0.17353,-0.0429 -0.25735,-0.0693 z m 1.98954,0.0729 c -0.15078,0.0297 -0.30394,0.0516 -0.4594,0.0651 -0.15936,0.0138 -0.3214,0.0193 -0.48524,0.016 -0.15963,-0.003 -0.32127,-0.0147 -0.48473,-0.0341 0.16339,0.0194 0.32516,0.031 0.48473,0.0341 0.16382,0.003 0.32588,-0.002 0.48524,-0.016 0.15551,-0.0135 0.30857,-0.0354 0.4594,-0.0651 z m -40.46265,0.15864 c -0.51237,0.19511 -1.07993,0.32129 -1.6955,0.37828 -0.3735,0.0345 -0.73918,0.0348 -1.09606,0.002 -0.17401,-0.0162 -0.34606,-0.0405 -0.51573,-0.0729 0.16965,0.0324 0.34168,0.0567 0.51573,0.0729 0.35685,0.0331 0.7223,0.0324 1.09554,-0.002 0.61578,-0.0569 1.18351,-0.18268 1.69602,-0.37776 z m -3.96875,0.11473 c 0.0398,0.0266 0.0836,0.0475 0.13075,0.062 -0.047,-0.0144 -0.091,-0.0355 -0.13075,-0.062 z m 0.14677,0.0667 c 0.16093,0.0479 0.32443,0.088 0.48989,0.1204 -0.16554,-0.0324 -0.32877,-0.0724 -0.48989,-0.1204 z m 36.94193,3.14709 c 0.0327,0.0339 0.0663,0.0675 0.10748,0.0899 0.0537,0.0292 0.11388,0.0479 0.17777,0.0527 -0.064,-0.005 -0.12406,-0.0235 -0.17777,-0.0527 -0.0396,-0.0216 -0.0762,-0.0494 -0.108,-0.0817 z" /><g
       id="g500-1-3"
       transform="rotate(2.389808,496.15054,1088.3045)"
       style="fill:#00d5ff;fill-opacity:1;stroke:#005c7e;stroke-opacity:1"><path
         style="font-size:10.5833px;line-height:1.31;font-family:Minercraftory;-inkscape-font-specification:Minercraftory;letter-spacing:0px;word-spacing:0px;text-orientation:upright;fill:#00d5ff;fill-opacity:1;stroke:#005c7e;stroke-width:2;stroke-linecap:round;stroke-linejoin:round;stroke-dasharray:none;stroke-opacity:1;paint-order:markers stroke fill"
         d="m -446.18653,-421.60864 -0.41187,-8.25793 3.09673,-0.15446 0.30891,6.19345 1.03223,-0.0515 -0.3089,-6.19345 3.09673,-0.15445 0.41187,8.25793 z"
         id="text240-0-4-2-9-0"
         aria-label="Build"
         sodipodi:nodetypes="ccccccccc" /><path
         style="font-size:10.5833px;line-height:1.31;font-family:Minercraftory;-inkscape-font-specification:Minercraftory;letter-spacing:0px;word-spacing:0px;text-orientation:upright;fill:#00d5ff;fill-opacity:1;stroke:#005c7e;stroke-width:2;stroke-linecap:round;stroke-linejoin:round;stroke-dasharray:none;stroke-opacity:1;paint-order:markers stroke fill"
         d="m -437.93064,-423.1201 -0.36039,-7.2257 3.09672,-0.15445 0.36039,7.2257 z m -0.40981,-8.21665 -0.10297,-2.06448 3.09672,-0.15445 0.10297,2.06448 z"
         id="text240-0-4-64-5-0"
         aria-label="Build"
         sodipodi:nodetypes="cccccccccc" /><path
         style="font-size:10.5833px;line-height:1.31;font-family:Minercraftory;-inkscape-font-specification:Minercraftory;letter-spacing:0px;word-spacing:0px;text-orientation:upright;fill:#00d5ff;fill-opacity:1;stroke:#005c7e;stroke-width:2;stroke-linecap:round;stroke-linejoin:round;stroke-dasharray:none;stroke-opacity:1;paint-order:markers stroke fill"
         d="m -426.88283,-429.83859 0.20594,4.12897 1.03224,-0.0515 -0.20593,-4.12897 z m 3.92303,-4.3349 0.51484,10.32241 -7.22569,0.36039 -0.41187,-8.25793 4.12897,-0.20594 -0.10297,-2.06448 z"
         id="text240-0-4-5-2-1"
         aria-label="Build"
         sodipodi:nodetypes="cccccccccccc" /><path
         style="font-size:10.5833px;line-height:1.31;font-family:Minercraftory;-inkscape-font-specification:Minercraftory;letter-spacing:0px;word-spacing:0px;text-orientation:upright;fill:#00d5ff;fill-opacity:1;stroke:#005c7e;stroke-width:2;stroke-linecap:round;stroke-linejoin:round;stroke-dasharray:none;stroke-opacity:1;paint-order:markers stroke fill"
         d="m -431.21773,-432.70328 0.51484,10.32242 -3.09672,0.15445 -0.51484,-10.32242 z"
         id="text240-0-4-5-9-8-8"
         aria-label="Build"
         sodipodi:nodetypes="ccccccc" /><path
         style="font-size:10.5833px;line-height:1.31;font-family:Minercraftory;-inkscape-font-specification:Minercraftory;letter-spacing:0px;word-spacing:0px;text-orientation:upright;fill:#00d5ff;fill-opacity:1;stroke:#005c7e;stroke-width:2;stroke-linecap:round;stroke-linejoin:round;stroke-dasharray:none;stroke-opacity:1;paint-order:markers stroke fill"
         d="m -447.73345,-432.93792 0.20594,4.12896 -1.03225,0.0515 0.0515,1.03225 1.03225,-0.0515 0.25742,5.16121 -7.2257,0.36039 -0.51484,-10.32242 z m -4.026,2.27042 0.10297,2.06448 1.03224,-0.0515 -0.10297,-2.06449 z m 0.21119,4.13388 0.10297,2.06448 1.03225,-0.0515 -0.10297,-2.06448 z"
         id="text240-0-4-6-9-1"
         aria-label="Build"
         sodipodi:nodetypes="ccccccccccccccccccc" /></g><path
       id="path242-9-8-2"
       style="color:#000000;-inkscape-font-specification:'Segoe UI Bold';fill:#ff0055;fill-opacity:1;stroke-linecap:round;stroke-linejoin:round;-inkscape-stroke:none;paint-order:markers stroke fill"
       d="m -543.53147,-471.34356 c -0.28122,0.0264 -0.48826,0.27094 -0.46322,0.54607 l 0.7204,7.85281 c 0.0873,0.95145 -0.0239,1.62846 -0.24247,2.02759 -0.21879,0.3995 -0.50865,0.58671 -1.06392,0.63892 -0.53085,0.0499 -0.99463,-0.0587 -1.457,-0.34374 -0.35282,-0.21831 -0.80236,0.0623 -0.76144,0.47414 l 0.27337,2.78685 c 0.0201,0.20258 0.16065,0.37306 0.3552,0.43113 0.67522,0.20282 1.39174,0.26838 2.13824,0.19941 1.64208,-0.1517 2.94194,-0.79421 3.7665,-1.93027 0.82951,-1.13549 1.14234,-2.66317 0.98959,-4.51251 l -0.6597,-7.98654 c -0.023,-0.27577 -0.27097,-0.47999 -0.55402,-0.45574 -1.01665,0.0867 -2.03054,0.1776 -3.04153,0.27188 z m 23.9574,2.31171 c -0.75565,-2.8e-4 -1.47189,0.18939 -2.10913,0.5603 -0.23756,0.13728 -0.36043,0.37226 -0.55961,0.54428 l -0.005,-0.35359 c -0.004,-0.27597 -0.23848,-0.4965 -0.52353,-0.49193 -1.00462,0.0168 -2.0082,0.0413 -3.01062,0.0728 -0.28438,0.009 -0.50646,0.24076 -0.49698,0.5169 l 0.33166,9.47027 c 0.01,0.27634 0.23702,0.49244 0.50732,0.48349 0.95387,-0.0322 1.9065,-0.0579 2.85777,-0.0763 0.26951,-0.005 0.48485,-0.23303 0.48049,-0.5092 l -0.0812,-5.25975 c -0.009,-0.60352 0.11546,-1.02217 0.32687,-1.30957 8e-5,-1.1e-4 0.002,7e-5 0.002,-3e-5 0.21977,-0.29032 0.43569,-0.40255 0.80835,-0.40575 0.39,-0.003 0.57202,0.0912 0.72825,0.29645 0.15658,0.20572 0.28025,0.59643 0.28251,1.20333 l 0.0203,5.45269 c 9.3e-4,0.2761 0.22013,0.49881 0.48876,0.49839 0.94869,-0.002 1.89588,0.004 2.84142,0.0183 0.2679,0.004 0.49003,-0.21542 0.49538,-0.49135 l 0.10443,-5.28776 c 0.0105,-0.53389 0.14292,-0.92708 0.38534,-1.23862 0.23734,-0.30501 0.45093,-0.4057 0.79401,-0.39626 0.3986,0.011 0.5812,0.11452 0.73499,0.33429 0.15421,0.22046 0.26653,0.63213 0.24551,1.25686 l -0.18124,5.38483 c -0.009,0.27572 0.20029,0.50623 0.46713,0.51573 0.93805,0.0338 1.87434,0.0768 2.80874,0.12987 0.26576,0.0152 0.49543,-0.19477 0.51213,-0.46995 l 0.35787,-5.86283 c 0.0813,-1.33167 -0.12246,-2.4174 -0.71868,-3.2121 -0.59564,-0.79394 -1.57109,-1.21821 -2.74821,-1.2617 -1.35848,-0.0502 -2.45858,0.53083 -3.28837,1.46373 -0.62888,-0.94285 -1.58066,-1.57531 -2.85836,-1.57578 3e-5,0 5e-5,0 8e-5,0 z m 18.00853,1.03668 c -1.06105,-0.1297 -1.98163,0.20614 -2.79096,0.74308 l 0.0322,-0.31597 c 0.0277,-0.27408 -0.18214,-0.51975 -0.46976,-0.54763 -1.01288,-0.0985 -2.0255,-0.1853 -3.03771,-0.26105 -0.2872,-0.0213 -0.5349,0.18482 -0.55453,0.45938 l -0.97349,13.74915 c -0.0195,0.27477 0.17279,0.51212 0.42836,0.53126 0.90306,0.067 1.80311,0.14431 2.70002,0.23271 0.25399,0.0251 0.48312,-0.17587 0.51095,-0.45014 l 0.44324,-4.35374 c 0.53945,0.50631 1.16708,0.89113 1.96143,0.98738 1.34272,0.16269 2.56426,-0.22338 3.54861,-1.14379 0.98812,-0.91744 1.62851,-2.22804 1.8958,-3.86534 0.24559,-1.50441 0.0922,-2.81263 -0.54618,-3.86812 -0.63541,-1.0678 -1.74765,-1.72603 -3.14795,-1.89718 z m -36.09857,-0.0381 c -0.2813,0.0217 -0.49142,0.26331 -0.46993,0.53924 l 0.44859,5.70683 c 0.10971,1.39569 0.48209,2.49217 1.18841,3.23302 0.70635,0.74091 1.72397,1.05529 2.90338,0.97636 0.93451,-0.0625 1.6866,-0.54549 2.33898,-1.19975 l 0.0183,0.31646 c 0.0159,0.27649 0.24963,0.48769 0.52133,0.47224 0.95526,-0.054 1.90953,-0.1027 2.86268,-0.14542 0.27087,-0.0123 0.48135,-0.24579 0.46973,-0.5221 l -0.39475,-9.47072 c -0.0117,-0.27611 -0.2507,-0.49065 -0.53451,-0.47866 -0.99753,0.0428 -1.99379,0.092 -2.98867,0.14699 -0.28321,0.0156 -0.49943,0.25257 -0.48364,0.52886 l 0.31355,5.41954 c 0.0315,0.54455 -0.0759,0.91493 -0.28276,1.19124 -3.2e-4,4.3e-4 4.6e-4,0.002 1.2e-4,0.002 -0.2081,0.27158 -0.4447,0.39699 -0.85015,0.42236 -0.42322,0.0265 -0.64039,-0.0631 -0.81775,-0.25965 -0.1771,-0.1963 -0.32744,-0.57414 -0.36737,-1.17661 l -0.36146,-5.45283 c -0.0185,-0.27617 -0.26202,-0.48488 -0.54425,-0.46563 -0.99153,0.0673 -1.98152,0.13959 -2.96984,0.21623 z m 34.59596,3.1128 c 0.54792,0.0623 0.83222,0.24214 1.0235,0.55527 0.19199,0.3143 0.28508,0.83686 0.18874,1.59709 -0.11002,0.86814 -0.36347,1.46387 -0.69246,1.82554 -0.32314,0.35686 -0.65115,0.47982 -1.17697,0.42024 -0.42862,-0.0486 -0.68715,-0.20548 -0.91016,-0.54071 -0.22461,-0.33763 -0.32199,-0.74735 -0.26512,-1.30814 l 0.0763,-0.7525 c 0.0666,-0.65684 0.27259,-1.10274 0.60094,-1.41525 0.34006,-0.3228 0.67775,-0.43587 1.15521,-0.38154 z"
       inkscape:path-effect="#path-effect1-3-5-3"
       inkscape:original-d="m -542.586,-470.97435 a 0.50005,0.50005 0 0 0 -0.49971,0.49971 v 7.87497 c 0,0.95435 -0.1717,1.61704 -0.42582,1.99419 -0.25411,0.37715 -0.56006,0.53692 -1.11724,0.53692 -0.5327,0 -0.98387,-0.15211 -1.41594,-0.48007 a 0.50005,0.50005 0 0 0 -0.80305,0.39842 v 2.80035 a 0.50005,0.50005 0 0 0 0.31264,0.46302 c 0.65489,0.26605 1.36548,0.39842 2.11925,0.39842 1.65859,0 3.02099,-0.52615 3.94343,-1.58595 0.9281,-1.05969 1.36322,-2.5523 1.36323,-4.40438 v -7.99589 a 0.50005,0.50005 0 0 0 -0.50023,-0.49971 z m 23.05854,3.55844 c -0.72951,0 -1.42251,0.18519 -2.04484,0.5488 -0.23203,0.13458 -0.35455,0.36784 -0.55087,0.53692 v -0.35347 a 0.50005,0.50005 0 0 0 -0.49971,-0.49971 h -2.92024 a 0.50005,0.50005 0 0 0 -0.49971,0.49971 v 9.46299 a 0.50005,0.50005 0 0 0 0.49971,0.50023 h 2.92024 a 0.50005,0.50005 0 0 0 0.49971,-0.50023 v -5.25808 c 0,-0.60313 0.13004,-1.02002 0.3421,-1.30431 8e-5,-1.1e-4 0.002,10e-5 0.002,0 0.22062,-0.28747 0.43378,-0.39688 0.80046,-0.39688 0.38369,0 0.56173,0.0951 0.71469,0.30128 0.15296,0.20617 0.27388,0.59788 0.27388,1.20458 v 5.45341 a 0.50005,0.50005 0 0 0 0.49972,0.50023 h 2.92178 a 0.50005,0.50005 0 0 0 0.50023,-0.50023 v -5.29477 c 0,-0.5345 0.12358,-0.93083 0.35553,-1.24798 0.22729,-0.31079 0.4341,-0.41652 0.77153,-0.41652 0.39194,0 0.57389,0.0974 0.73226,0.31265 0.15836,0.21534 0.28318,0.62432 0.28318,1.25005 v 5.39657 a 0.50005,0.50005 0 0 0 0.50023,0.50023 h 2.9099 a 0.50005,0.50005 0 0 0 0.50023,-0.50023 v -5.88698 c 0,-1.33685 -0.26597,-2.41059 -0.88315,-3.1719 -0.61717,-0.76131 -1.57143,-1.13636 -2.7032,-1.13636 -1.30588,0 -2.35099,0.60509 -3.14451,1.55287 -0.62635,-0.93369 -1.54906,-1.55287 -2.78122,-1.55287 z m 17.32039,0 c -1.01711,0 -1.85275,0.43293 -2.57607,1.05058 v -0.31833 a 0.50005,0.50005 0 0 0 -0.50023,-0.49971 h -2.92179 a 0.50005,0.50005 0 0 0 -0.49971,0.49971 v 13.81621 a 0.50005,0.50005 0 0 0 0.49971,0.50023 h 2.92179 a 0.50005,0.50005 0 0 0 0.50023,-0.50023 v -4.38629 c 0.60927,0.44956 1.30572,0.76532 2.1425,0.76532 1.41639,0 2.63024,-0.55722 3.4923,-1.61695 0.86805,-1.05943 1.28726,-2.45547 1.28726,-4.11551 0,-1.52349 -0.35803,-2.79101 -1.1157,-3.73828 -0.75789,-0.96139 -1.8894,-1.45675 -3.23029,-1.45675 z m -34.93534,0.23254 a 0.50005,0.50005 0 0 0 -0.50023,0.49971 v 5.71076 c 0,1.39665 0.28481,2.51669 0.93742,3.30678 0.6526,0.7901 1.65592,1.1777 2.85357,1.1777 0.9489,0 1.74114,-0.43484 2.43758,-1.04851 v 0.31626 a 0.50005,0.50005 0 0 0 0.50022,0.50023 h 2.91197 a 0.50005,0.50005 0 0 0 0.49971,-0.50023 v -9.46299 a 0.50005,0.50005 0 0 0 -0.49971,-0.49971 h -2.91197 a 0.50005,0.50005 0 0 0 -0.50022,0.49971 v 5.41621 c 0,0.54431 -0.12834,0.90687 -0.3514,1.16995 -3.5e-4,4.1e-4 3.4e-4,0.002 0,0.002 -0.22389,0.25808 -0.46846,0.36897 -0.8754,0.36897 -0.42477,0 -0.63631,-0.10348 -0.80047,-0.31058 -0.16415,-0.2071 -0.28887,-0.59279 -0.28887,-1.19527 v -5.45135 a 0.50005,0.50005 0 0 0 -0.50023,-0.49971 z m 33.84548,3.00343 c 0.53982,0 0.83609,0.14363 1.0604,0.43202 0.22431,0.2884 0.38086,0.79725 0.38086,1.56424 0,0.87736 -0.17627,1.49992 -0.46251,1.90066 -0.28006,0.39399 -0.59746,0.55656 -1.13481,0.55656 -0.438,0 -0.71711,-0.12919 -0.97669,-0.43977 -0.26184,-0.31327 -0.40049,-0.71184 -0.40049,-1.27692 v -0.7581 c 0,-0.66152 0.15882,-1.12728 0.44752,-1.47277 0.29958,-0.35757 0.61519,-0.50592 1.08572,-0.50592 z"
       transform="translate(147.62779,10.914139)" /><text
       xml:space="preserve"
       style="font-size:5.35934px;line-height:1.31;font-family:'Soup of Justice';-inkscape-font-specification:'Soup of Justice';letter-spacing:0px;word-spacing:0px;text-orientation:upright;fill:#ffffff;fill-opacity:1;stroke:#16162a;stroke-width:1;stroke-linecap:round;stroke-linejoin:round;stroke-dasharray:none;stroke-opacity:1;paint-order:markers stroke fill"
       x="-421.43362"
       y="-419.3103"
       id="text501-2-5"
       transform="rotate(5.421435)"><tspan
         sodipodi:role="line"
         id="tspan501-1-6"
         style="font-style:normal;font-variant:normal;font-weight:normal;font-stretch:normal;font-family:'Om Botak';-inkscape-font-specification:'Om Botak';fill:#ffffff;fill-opacity:1;stroke:#16162a;stroke-width:1;stroke-dasharray:none;stroke-opacity:1"
         x="-421.43362"
         y="-419.3103">And</tspan></text></g></svg>
